<?xml version="1.0" encoding="UTF-8"?>
<svg id="Layer_2" data-name="Layer 2" xmlns="http://www.w3.org/2000/svg" viewBox="0 0 400 400">
  <defs>
    <style>
      .cls-1 {
        fill: #1e90ff;
      }

      .cls-2 {
        fill: #fff;
      }
    </style>
  </defs>
  <g id="Layer_1-2" data-name="Layer 1">
    <g>
      <circle class="cls-1" cx="200" cy="200" r="200"/>
      <path class="cls-2" d="M240.13,110h-80.25c-6.68,0-12.16,5.48-12.16,12.16v155.69c0,6.68,5.48,12.16,12.16,12.16h80.25c6.68,0,12.16-5.48,12.16-12.16V122.16c0-6.68-5.48-12.16-12.16-12.16h0ZM187.17,118.76h25.66c.83,0,1.48.66,1.48,1.48s-.65,1.45-1.48,1.45h-25.66c-.83,0-1.49-.65-1.49-1.45s.66-1.48,1.49-1.48h0ZM200,283.92c-3.37,0-6.07-2.71-6.07-6.08s2.71-6.07,6.07-6.07,6.08,2.71,6.08,6.07-2.71,6.08-6.08,6.08h0ZM243.82,267.5h-87.64v-138.21h87.64v138.21Z"/>
    </g>
  </g>
</svg>