<?xml version="1.0" encoding="UTF-8"?>
<svg id="Layer_2" xmlns="http://www.w3.org/2000/svg" version="1.1" viewBox="0 0 400 400">
  <!-- Generator: Adobe Illustrator 29.1.0, SVG Export Plug-In . SVG Version: 2.1.0 Build 142)  -->
  <defs>
    <style>
      .st0 {
        fill: #1e90ff;
      }

      .st1 {
        fill: #fff;
      }
    </style>
  </defs>
  <circle class="st0" cx="200" cy="200" r="200"/>
  <path class="st1" d="M266.9,50h-133.7c-11.1,0-20.3,9.1-20.3,20.3v259.5c0,11.1,9.1,20.3,20.3,20.3h133.7c11.1,0,20.3-9.1,20.3-20.3V70.3c0-11.1-9.1-20.3-20.3-20.3h0ZM178.6,64.6h42.8c1.4,0,2.5,1.1,2.5,2.5s-1.1,2.4-2.5,2.4h-42.8c-1.4,0-2.5-1.1-2.5-2.4s1.1-2.5,2.5-2.5h0ZM200,339.9c-5.6,0-10.1-4.5-10.1-10.1s4.5-10.1,10.1-10.1,10.1,4.5,10.1,10.1-4.5,10.1-10.1,10.1h0ZM273,312.5H127V82.2h146.1v230.3Z"/>
</svg>